<svg xmlns:dc="http://purl.org/dc/elements/1.1/" xmlns:cc="http://creativecommons.org/ns#" xmlns:rdf="http://www.w3.org/1999/02/22-rdf-syntax-ns#" xmlns:svg="http://www.w3.org/2000/svg" xmlns="http://www.w3.org/2000/svg" xmlns:sodipodi="http://sodipodi.sourceforge.net/DTD/sodipodi-0.dtd" xmlns:inkscape="http://www.inkscape.org/namespaces/inkscape" viewBox="0 0 238.12499 297.6562625" version="1.1" x="0px" y="0px"><g><path style="color:#47474d;font-style:normal;font-variant:normal;font-weight:normal;font-stretch:normal;font-size:medium;line-height:normal;font-family:sans-serif;font-variant-ligatures:normal;font-variant-position:normal;font-variant-caps:normal;font-variant-numeric:normal;font-variant-alternates:normal;font-variant-east-asian:normal;font-feature-settings:normal;font-variation-settings:normal;text-indent:0;text-align:start;text-decoration:none;text-decoration-line:none;text-decoration-style:solid;text-decoration-color:#47474d;letter-spacing:normal;word-spacing:normal;text-transform:none;writing-mode:lr-tb;direction:ltr;text-orientation:mixed;dominant-baseline:auto;baseline-shift:baseline;text-anchor:start;white-space:normal;shape-padding:0;shape-margin:0;inline-size:0;clip-rule:nonzero;display:inline;overflow:visible;visibility:visible;isolation:auto;mix-blend-mode:normal;color-interpolation:sRGB;color-interpolation-filters:linearRGB;solid-color:#47474d;solid-opacity:1;vector-effect:none;fill:#47474d;fill-opacity:1;fill-rule:nonzero;stroke:none;stroke-linecap:round;stroke-linejoin:round;stroke-miterlimit:4;stroke-dasharray:none;stroke-dashoffset:0;stroke-opacity:1;color-rendering:auto;image-rendering:auto;shape-rendering:auto;text-rendering:auto;enable-background:accumulate;stop-color:#47474d;stop-opacity:1;opacity:1" d="M 155.69141 83.113281 C 153.97333 82.882397 152.12604 83.354897 150.78516 84.736328 C 149.3347 86.230644 148.75106 88.412094 149.49219 90.474609 C 150.16618 92.350293 151.65415 93.546561 153.16797 94.203125 C 154.8674 94.940191 156.44689 95.344628 157.72266 95.888672 C 161.73788 97.600946 165.48643 99.906893 168.68359 102.80078 C 173.01117 106.71786 176.48393 111.59676 179.32422 116.83594 A 2.24896 2.24896 0 0 0 182.37305 117.74219 A 2.24896 2.24896 0 0 0 183.2793 114.69336 C 180.26534 109.13384 176.51682 103.82565 171.70117 99.466797 C 168.08976 96.197954 163.91413 93.639338 159.48828 91.751953 C 157.79185 91.028515 156.21979 90.623848 154.95703 90.076172 C 154.32251 89.800974 153.86413 89.335977 153.72656 88.953125 C 153.62973 88.683632 153.74185 88.147171 154.01172 87.869141 C 154.19826 87.676963 154.6579 87.512003 155.0918 87.570312 C 155.60897 87.639813 156.2436 87.9378 156.87109 88.417969 A 2.24896 2.24896 0 0 0 160.02539 87.998047 A 2.24896 2.24896 0 0 0 159.60547 84.845703 C 158.56938 84.052869 157.27331 83.325867 155.69141 83.113281 z "/><path style="color:#47474d;font-style:normal;font-variant:normal;font-weight:normal;font-stretch:normal;font-size:medium;line-height:normal;font-family:sans-serif;font-variant-ligatures:normal;font-variant-position:normal;font-variant-caps:normal;font-variant-numeric:normal;font-variant-alternates:normal;font-variant-east-asian:normal;font-feature-settings:normal;font-variation-settings:normal;text-indent:0;text-align:start;text-decoration:none;text-decoration-line:none;text-decoration-style:solid;text-decoration-color:#47474d;letter-spacing:normal;word-spacing:normal;text-transform:none;writing-mode:lr-tb;direction:ltr;text-orientation:mixed;dominant-baseline:auto;baseline-shift:baseline;text-anchor:start;white-space:normal;shape-padding:0;shape-margin:0;inline-size:0;clip-rule:nonzero;display:inline;overflow:visible;visibility:visible;isolation:auto;mix-blend-mode:normal;color-interpolation:sRGB;color-interpolation-filters:linearRGB;solid-color:#47474d;solid-opacity:1;vector-effect:none;fill:#47474d;fill-opacity:1;fill-rule:nonzero;stroke:none;stroke-linecap:round;stroke-linejoin:round;stroke-miterlimit:4;stroke-dasharray:none;stroke-dashoffset:0;stroke-opacity:1;color-rendering:auto;image-rendering:auto;shape-rendering:auto;text-rendering:auto;enable-background:accumulate;stop-color:#47474d;stop-opacity:1;opacity:1" d="M 82.873047 83.113281 C 81.291139 83.325866 79.995074 84.052864 78.958984 84.845703 A 2.24896 2.24896 0 0 0 78.541016 87.998047 A 2.24896 2.24896 0 0 0 81.693359 88.417969 C 82.320841 87.937806 82.95548 87.639813 83.472656 87.570312 C 83.906552 87.512003 84.366192 87.676958 84.552734 87.869141 C 84.822607 88.147173 84.934729 88.683624 84.837891 88.953125 C 84.700327 89.335966 84.241941 89.800972 83.607422 90.076172 C 82.344661 90.62385 80.772612 91.028512 79.076172 91.751953 C 74.650324 93.63934 70.474697 96.197954 66.863281 99.466797 C 62.047625 103.82565 58.299111 109.13384 55.285156 114.69336 A 2.24896 2.24896 0 0 0 56.191406 117.74219 A 2.24896 2.24896 0 0 0 59.240234 116.83594 C 62.080524 111.59676 65.553275 106.71786 69.880859 102.80078 C 73.078027 99.906892 76.826575 97.600948 80.841797 95.888672 C 82.117552 95.344631 83.698991 94.9402 85.398438 94.203125 C 86.912248 93.546563 88.39828 92.350311 89.072266 90.474609 C 89.813375 88.412103 89.229755 86.230645 87.779297 84.736328 C 86.438417 83.354903 84.59112 82.882397 82.873047 83.113281 z "/><path style="color:#47474d;font-style:normal;font-variant:normal;font-weight:normal;font-stretch:normal;font-size:medium;line-height:normal;font-family:sans-serif;font-variant-ligatures:normal;font-variant-position:normal;font-variant-caps:normal;font-variant-numeric:normal;font-variant-alternates:normal;font-variant-east-asian:normal;font-feature-settings:normal;font-variation-settings:normal;text-indent:0;text-align:start;text-decoration:none;text-decoration-line:none;text-decoration-style:solid;text-decoration-color:#47474d;letter-spacing:normal;word-spacing:normal;text-transform:none;writing-mode:lr-tb;direction:ltr;text-orientation:mixed;dominant-baseline:auto;baseline-shift:baseline;text-anchor:start;white-space:normal;shape-padding:0;shape-margin:0;inline-size:0;clip-rule:nonzero;display:inline;overflow:visible;visibility:visible;isolation:auto;mix-blend-mode:normal;color-interpolation:sRGB;color-interpolation-filters:linearRGB;solid-color:#47474d;solid-opacity:1;vector-effect:none;fill:#47474d;fill-opacity:1;fill-rule:nonzero;stroke:none;stroke-linecap:round;stroke-linejoin:round;stroke-miterlimit:4;stroke-dasharray:none;stroke-dashoffset:0;stroke-opacity:1;color-rendering:auto;image-rendering:auto;shape-rendering:auto;text-rendering:auto;enable-background:accumulate;stop-color:#47474d;stop-opacity:1;opacity:1" d="M 89.869141 112.03125 C 88.530643 111.98596 87.170719 112.04069 85.802734 112.23828 C 85.368655 112.30098 84.936878 112.37787 84.507812 112.46875 A 2.24896 2.24896 0 0 0 82.773438 115.13477 A 2.24896 2.24896 0 0 0 85.439453 116.86914 C 85.772733 116.79855 86.108137 116.73816 86.445312 116.68945 C 88.57006 116.38255 90.828295 116.50888 93.115234 116.86523 C 96.089613 117.3287 98.96516 118.15398 101.51758 119.49023 C 103.34837 120.4487 105.03916 121.68488 106.50781 123.13867 A 2.24896 2.24896 0 0 0 109.68945 123.12109 A 2.24896 2.24896 0 0 0 109.67188 119.94141 C 107.88333 118.17096 105.83308 116.67114 103.60352 115.50391 C 100.49763 113.8779 97.142926 112.94174 93.806641 112.42188 C 92.52381 112.22198 91.207638 112.07654 89.869141 112.03125 z "/><path style="color:#47474d;font-style:normal;font-variant:normal;font-weight:normal;font-stretch:normal;font-size:medium;line-height:normal;font-family:sans-serif;font-variant-ligatures:normal;font-variant-position:normal;font-variant-caps:normal;font-variant-numeric:normal;font-variant-alternates:normal;font-variant-east-asian:normal;font-feature-settings:normal;font-variation-settings:normal;text-indent:0;text-align:start;text-decoration:none;text-decoration-line:none;text-decoration-style:solid;text-decoration-color:#47474d;letter-spacing:normal;word-spacing:normal;text-transform:none;writing-mode:lr-tb;direction:ltr;text-orientation:mixed;dominant-baseline:auto;baseline-shift:baseline;text-anchor:start;white-space:normal;shape-padding:0;shape-margin:0;inline-size:0;clip-rule:nonzero;display:inline;overflow:visible;visibility:visible;isolation:auto;mix-blend-mode:normal;color-interpolation:sRGB;color-interpolation-filters:linearRGB;solid-color:#47474d;solid-opacity:1;vector-effect:none;fill:#47474d;fill-opacity:1;fill-rule:nonzero;stroke:none;stroke-linecap:round;stroke-linejoin:round;stroke-miterlimit:4;stroke-dasharray:none;stroke-dashoffset:0;stroke-opacity:1;color-rendering:auto;image-rendering:auto;shape-rendering:auto;text-rendering:auto;enable-background:accumulate;stop-color:#47474d;stop-opacity:1;opacity:1" d="M 150.58789 112.03125 C 149.24939 112.07654 147.93322 112.22198 146.65039 112.42188 C 143.3141 112.94174 139.95941 113.8779 136.85352 115.50391 C 134.62395 116.67114 132.5737 118.17096 130.78516 119.94141 A 2.24896 2.24896 0 0 0 130.76758 123.12109 A 2.24896 2.24896 0 0 0 133.94922 123.13867 C 135.41787 121.68488 137.10866 120.4487 138.93945 119.49023 C 141.49187 118.15398 144.36742 117.3287 147.3418 116.86523 C 149.62874 116.50888 151.88697 116.38255 154.01172 116.68945 C 154.34889 116.73816 154.6843 116.79855 155.01758 116.86914 A 2.24896 2.24896 0 0 0 157.68359 115.13477 A 2.24896 2.24896 0 0 0 155.94922 112.46875 C 155.52015 112.37787 155.08838 112.30098 154.6543 112.23828 C 153.28631 112.04069 151.92639 111.98596 150.58789 112.03125 z "/><path style="color:#47474d;font-style:normal;font-variant:normal;font-weight:normal;font-stretch:normal;font-size:medium;line-height:normal;font-family:sans-serif;font-variant-ligatures:normal;font-variant-position:normal;font-variant-caps:normal;font-variant-numeric:normal;font-variant-alternates:normal;font-variant-east-asian:normal;font-feature-settings:normal;font-variation-settings:normal;text-indent:0;text-align:start;text-decoration:none;text-decoration-line:none;text-decoration-style:solid;text-decoration-color:#47474d;letter-spacing:normal;word-spacing:normal;text-transform:none;writing-mode:lr-tb;direction:ltr;text-orientation:mixed;dominant-baseline:auto;baseline-shift:baseline;text-anchor:start;white-space:normal;shape-padding:0;shape-margin:0;inline-size:0;clip-rule:nonzero;display:inline;overflow:visible;visibility:visible;isolation:auto;mix-blend-mode:normal;color-interpolation:sRGB;color-interpolation-filters:linearRGB;solid-color:#47474d;solid-opacity:1;vector-effect:none;fill:#47474d;fill-opacity:1;fill-rule:nonzero;stroke:none;stroke-linecap:round;stroke-linejoin:round;stroke-miterlimit:4;stroke-dasharray:none;stroke-dashoffset:0;stroke-opacity:1;color-rendering:auto;image-rendering:auto;shape-rendering:auto;text-rendering:auto;enable-background:accumulate;stop-color:#47474d;stop-opacity:1;opacity:1" d="M 129.96094 35.097656 C 124.71407 34.67487 118.92632 34.961962 113.82031 37.71875 C 110.80774 39.345273 108.01007 42.062993 107.07422 45.800781 C 105.8306 50.767814 108.86 55.558249 113.07617 57.632812 C 115.93346 59.038739 119.60771 59.378912 122.65234 57.472656 C 124.23878 56.479385 125.24413 54.904126 125.6543 53.166016 C 126.06446 51.427906 125.82751 49.370161 124.50391 47.769531 C 123.34397 46.366822 121.70206 45.752261 120.26172 45.558594 C 118.82138 45.364927 117.47823 45.511231 116.36719 45.669922 A 2.24896 2.24896 0 0 0 114.45898 48.214844 A 2.24896 2.24896 0 0 0 117.00391 50.123047 C 117.95318 49.987462 118.9349 49.917846 119.66211 50.015625 C 120.38931 50.113404 120.75792 50.299096 121.03711 50.636719 C 121.32807 50.988571 121.42927 51.489015 121.27734 52.132812 C 121.12542 52.77661 120.66939 53.407358 120.26562 53.660156 C 118.90826 54.510008 116.75609 54.429033 115.0625 53.595703 C 112.61615 52.391979 110.81926 49.361815 111.4375 46.892578 C 111.96863 44.771237 113.79129 42.847042 115.95703 41.677734 C 119.90679 39.545218 124.79559 39.194929 129.59961 39.582031 C 137.35242 40.206744 144.99624 42.336819 152.25586 45.357422 C 165.63505 50.924278 176.95477 61.069476 184.67383 73.371094 C 195.83242 91.154184 200.06287 113.1656 196.78516 133.89453 A 2.24896 2.24896 0 0 0 198.65625 136.4668 A 2.24896 2.24896 0 0 0 201.22852 134.5957 C 204.67572 112.79487 200.25714 89.742338 188.48438 70.980469 C 180.3059 57.946704 168.31747 47.167695 153.98242 41.203125 C 146.38238 38.040875 138.29258 35.76901 129.96094 35.097656 z M 98.089844 39.052734 A 2.24896 2.24896 0 0 0 97.464844 39.130859 C 90.760914 40.953372 84.413891 43.832049 78.511719 47.337891 C 61.106372 57.676521 47.003669 73.895495 40.181641 93.142578 C 35.161075 107.30717 34.479339 122.81622 37.804688 137.39453 A 2.24896 2.24896 0 0 0 40.498047 139.08594 A 2.24896 2.24896 0 0 0 42.191406 136.39453 C 39.049811 122.62179 39.702583 107.95362 44.419922 94.644531 C 50.854436 76.490747 64.264075 61.032384 80.808594 51.205078 C 86.422499 47.870465 92.404679 45.167053 98.644531 43.470703 A 2.24896 2.24896 0 0 0 100.22461 40.710938 A 2.24896 2.24896 0 0 0 98.089844 39.052734 z M 62.705078 175.93945 A 2.24896 2.24896 0 0 0 61.140625 176.6582 A 2.24896 2.24896 0 0 0 61.259766 179.83594 C 64.207791 182.57117 67.345639 185.09736 70.642578 187.39648 C 87.303258 199.01484 108.01507 204.71211 128.29102 202.83203 C 133.16767 202.37985 137.99684 201.48093 142.70703 200.11328 C 155.88562 196.28675 168.44644 189.676 178.35742 179.92969 A 2.24896 2.24896 0 0 0 178.38477 176.74805 A 2.24896 2.24896 0 0 0 175.20312 176.72266 C 165.9232 185.8484 154.03129 192.14216 141.45117 195.79492 C 137.02512 197.08007 132.47825 197.92668 127.875 198.35352 C 108.71413 200.1302 89.00447 194.71795 73.214844 183.70703 C 70.087535 181.5262 67.111888 179.13095 64.318359 176.53906 A 2.24896 2.24896 0 0 0 62.705078 175.93945 z "/><path style="color:#47474d;font-style:normal;font-variant:normal;font-weight:normal;font-stretch:normal;font-size:medium;line-height:normal;font-family:sans-serif;font-variant-ligatures:normal;font-variant-position:normal;font-variant-caps:normal;font-variant-numeric:normal;font-variant-alternates:normal;font-variant-east-asian:normal;font-feature-settings:normal;font-variation-settings:normal;text-indent:0;text-align:start;text-decoration:none;text-decoration-line:none;text-decoration-style:solid;text-decoration-color:#47474d;letter-spacing:normal;word-spacing:normal;text-transform:none;writing-mode:lr-tb;direction:ltr;text-orientation:mixed;dominant-baseline:auto;baseline-shift:baseline;text-anchor:start;white-space:normal;shape-padding:0;shape-margin:0;inline-size:0;clip-rule:nonzero;display:inline;overflow:visible;visibility:visible;isolation:auto;mix-blend-mode:normal;color-interpolation:sRGB;color-interpolation-filters:linearRGB;solid-color:#47474d;solid-opacity:1;vector-effect:none;fill:#47474d;fill-opacity:1;fill-rule:nonzero;stroke:none;stroke-linecap:round;stroke-linejoin:round;stroke-miterlimit:4;stroke-dasharray:none;stroke-dashoffset:0;stroke-opacity:1;color-rendering:auto;image-rendering:auto;shape-rendering:auto;text-rendering:auto;enable-background:accumulate;stop-color:#47474d;stop-opacity:1;opacity:1" d="M 154.11914 134.81641 A 2.24896 2.24896 0 0 0 153.74023 134.84961 C 151.70556 135.19792 149.65909 135.49964 147.60352 135.76758 C 136.43401 137.22348 125.12955 137.74036 113.82227 137.66211 C 104.33814 137.59647 94.871372 137.04334 85.570312 135.55469 A 2.24896 2.24896 0 0 0 82.994141 137.41992 A 2.24896 2.24896 0 0 0 84.859375 139.99609 C 94.458733 141.53249 104.15297 142.09345 113.79102 142.16016 C 125.25581 142.2395 136.76556 141.71707 148.18555 140.22852 C 150.29182 139.95397 152.39769 139.64309 154.5 139.2832 A 2.24896 2.24896 0 0 0 156.33789 136.6875 A 2.24896 2.24896 0 0 0 154.11914 134.81641 z M 158.80664 157.66016 A 2.24896 2.24896 0 0 0 157.06445 158.53906 C 152.64195 164.30753 146.44207 168.68351 139.60156 171.31641 C 130.78468 174.71001 121.01509 175.51235 111.57617 174.29883 C 102.85732 173.17788 94.303702 170.46308 86.908203 165.86328 C 84.996864 164.67448 83.175537 163.35942 81.486328 161.9082 A 2.24896 2.24896 0 0 0 78.314453 162.14844 A 2.24896 2.24896 0 0 0 78.554688 165.32031 C 80.437231 166.93763 82.445149 168.38414 84.53125 169.68164 C 92.571924 174.68272 101.74446 177.56931 111.00391 178.75977 C 121.0792 180.05511 131.58532 179.22081 141.2168 175.51367 C 148.76302 172.60914 155.64767 167.78222 160.63477 161.27734 A 2.24896 2.24896 0 0 0 160.21875 158.12305 A 2.24896 2.24896 0 0 0 158.80664 157.66016 z "/><path style="color:#47474d;font-style:normal;font-variant:normal;font-weight:normal;font-stretch:normal;font-size:medium;line-height:normal;font-family:sans-serif;font-variant-ligatures:normal;font-variant-position:normal;font-variant-caps:normal;font-variant-numeric:normal;font-variant-alternates:normal;font-variant-east-asian:normal;font-feature-settings:normal;font-variation-settings:normal;text-indent:0;text-align:start;text-decoration:none;text-decoration-line:none;text-decoration-style:solid;text-decoration-color:#47474d;letter-spacing:normal;word-spacing:normal;text-transform:none;writing-mode:lr-tb;direction:ltr;text-orientation:mixed;dominant-baseline:auto;baseline-shift:baseline;text-anchor:start;white-space:normal;shape-padding:0;shape-margin:0;inline-size:0;clip-rule:nonzero;display:inline;overflow:visible;visibility:visible;isolation:auto;mix-blend-mode:normal;color-interpolation:sRGB;color-interpolation-filters:linearRGB;solid-color:#47474d;solid-opacity:1;vector-effect:none;fill:#47474d;fill-opacity:1;fill-rule:nonzero;stroke:none;stroke-linecap:round;stroke-linejoin:round;stroke-miterlimit:4;stroke-dasharray:none;stroke-dashoffset:0;stroke-opacity:1;color-rendering:auto;image-rendering:auto;shape-rendering:auto;text-rendering:auto;enable-background:accumulate;stop-color:#47474d;stop-opacity:1;opacity:1" d="M 156.30469 147.75391 A 2.24896 2.24896 0 0 0 155.5625 147.89453 C 152.3148 149.10271 148.98069 150.07851 145.59375 150.81055 C 138.33255 152.37995 130.78921 152.83856 123.18945 153.00195 C 114.55016 153.1877 105.92424 152.99849 97.404297 152.05273 C 93.189283 151.58485 89.067891 150.9299 85.25 149.60742 C 85.022343 149.52856 84.796237 149.44698 84.570312 149.36328 A 2.24896 2.24896 0 0 0 81.679688 150.69141 A 2.24896 2.24896 0 0 0 83.007812 153.58203 C 83.26372 153.67683 83.521426 153.7681 83.779297 153.85742 C 88.103405 155.35525 92.559189 156.04068 96.908203 156.52344 C 105.69378 157.49868 114.51666 157.68657 123.28516 157.49805 C 130.99983 157.33218 138.83191 156.87366 146.54297 155.20703 C 150.14025 154.42953 153.68147 153.39258 157.13086 152.10938 A 2.24896 2.24896 0 0 0 158.45508 149.21875 A 2.24896 2.24896 0 0 0 156.30469 147.75391 z "/><path style="color:#47474d;font-style:normal;font-variant:normal;font-weight:normal;font-stretch:normal;font-size:medium;line-height:normal;font-family:sans-serif;font-variant-ligatures:normal;font-variant-position:normal;font-variant-caps:normal;font-variant-numeric:normal;font-variant-alternates:normal;font-variant-east-asian:normal;font-feature-settings:normal;font-variation-settings:normal;text-indent:0;text-align:start;text-decoration:none;text-decoration-line:none;text-decoration-style:solid;text-decoration-color:#47474d;letter-spacing:normal;word-spacing:normal;text-transform:none;writing-mode:lr-tb;direction:ltr;text-orientation:mixed;dominant-baseline:auto;baseline-shift:baseline;text-anchor:start;white-space:normal;shape-padding:0;shape-margin:0;inline-size:0;clip-rule:nonzero;display:inline;overflow:visible;visibility:visible;isolation:auto;mix-blend-mode:normal;color-interpolation:sRGB;color-interpolation-filters:linearRGB;solid-color:#47474d;solid-opacity:1;vector-effect:none;fill:#47474d;fill-opacity:1;fill-rule:nonzero;stroke:none;stroke-linecap:round;stroke-linejoin:round;stroke-miterlimit:4;stroke-dasharray:none;stroke-dashoffset:0;stroke-opacity:1;color-rendering:auto;image-rendering:auto;shape-rendering:auto;text-rendering:auto;enable-background:accumulate;stop-color:#47474d;stop-opacity:1;opacity:1" d="M 77.957031 113.38867 A 2.24896 2.24896 0 0 0 77.578125 113.42383 A 2.24896 2.24896 0 0 0 75.763672 116.03516 C 77.0474 123.16103 77.309499 130.48146 76.65625 137.71094 C 76.08575 144.02464 74.921781 150.26492 72.53125 155.96094 C 70.941833 159.74811 68.803218 163.26849 65.839844 165.75391 C 63.701697 167.5472 60.956867 168.64389 58.185547 168.77344 C 54.180874 168.96063 49.938545 168.55813 48.185547 166.47656 C 45.661655 163.47962 43.875008 159.8598 43.498047 156.10547 C 43.123911 152.37928 44.199155 148.48897 46.087891 145.04883 C 48.598655 140.47572 52.263087 136.51153 56.400391 133.11133 C 59.796826 130.32 63.347207 127.79183 67.179688 126.04883 C 67.855349 125.74154 68.397473 125.61638 68.996094 125.40039 C 69.223135 128.01206 69.229334 130.67295 68.984375 133.36328 C 68.536325 138.28411 67.634003 143.13299 65.857422 147.58398 C 64.735676 150.39437 63.312365 152.9955 61.314453 154.85938 C 60.010199 156.07613 58.333469 156.85976 56.761719 156.86719 C 55.861876 156.87144 55.108447 156.79125 54.589844 156.59375 C 53.911999 156.3356 53.249953 155.60982 52.921875 154.7168 C 52.438517 153.4011 52.484829 151.73558 52.816406 149.95703 C 53.074166 148.57443 53.670445 147.36393 54.501953 146.7207 C 54.979595 146.35122 55.749675 146.23737 56.251953 146.44336 C 56.624918 146.59632 57.043649 147.13028 57.146484 147.72656 C 57.241191 148.27572 57.169269 148.96633 56.941406 149.69141 A 2.24896 2.24896 0 0 0 58.412109 152.51172 A 2.24896 2.24896 0 0 0 61.232422 151.03906 C 61.614389 149.8236 61.831698 148.43126 61.578125 146.96094 C 61.23938 144.99675 60.02235 143.12747 57.958984 142.28125 C 55.831492 141.40873 53.48862 141.81718 51.75 143.16211 C 49.711957 144.73867 48.784992 147.03841 48.394531 149.13281 C 47.992184 151.29097 47.788465 153.78851 48.699219 156.26758 C 49.40353 158.18471 50.826316 159.97352 52.988281 160.79688 C 54.361612 161.31989 55.678285 161.36851 56.783203 161.36328 C 59.75162 161.34924 62.400279 159.99796 64.382812 158.14844 C 67.109204 155.60496 68.788118 152.37624 70.035156 149.25195 C 72.033104 144.24635 72.989865 138.96662 73.462891 133.77148 C 73.787433 130.20711 73.853217 126.52943 73.308594 122.84961 C 73.184375 122.01031 72.461524 120.96878 71.644531 120.61133 C 70.827539 120.25387 70.223396 120.34652 69.808594 120.41406 C 68.052051 120.7001 66.587424 121.37791 65.318359 121.95508 C 60.95185 123.94095 57.097035 126.71745 53.544922 129.63672 C 49.09153 133.2967 45.014101 137.65813 42.144531 142.88477 C 39.918044 146.94009 38.534585 151.68598 39.023438 156.55469 C 39.511311 161.41365 41.751178 165.81875 44.746094 169.375 C 48.270179 173.55961 54.108576 173.46597 58.394531 173.26562 C 62.194914 173.08798 65.841674 171.62209 68.730469 169.19922 C 72.46704 166.06531 74.921457 161.89253 76.679688 157.70312 C 79.320998 151.40957 80.541031 144.70769 81.136719 138.11523 C 81.824131 130.50767 81.551452 122.78779 80.191406 115.23828 A 2.24896 2.24896 0 0 0 77.957031 113.38867 z "/><path style="color:#47474d;font-style:normal;font-variant:normal;font-weight:normal;font-stretch:normal;font-size:medium;line-height:normal;font-family:sans-serif;font-variant-ligatures:normal;font-variant-position:normal;font-variant-caps:normal;font-variant-numeric:normal;font-variant-alternates:normal;font-variant-east-asian:normal;font-feature-settings:normal;font-variation-settings:normal;text-indent:0;text-align:start;text-decoration:none;text-decoration-line:none;text-decoration-style:solid;text-decoration-color:#47474d;letter-spacing:normal;word-spacing:normal;text-transform:none;writing-mode:lr-tb;direction:ltr;text-orientation:mixed;dominant-baseline:auto;baseline-shift:baseline;text-anchor:start;white-space:normal;shape-padding:0;shape-margin:0;inline-size:0;clip-rule:nonzero;display:inline;overflow:visible;visibility:visible;isolation:auto;mix-blend-mode:normal;color-interpolation:sRGB;color-interpolation-filters:linearRGB;solid-color:#47474d;solid-opacity:1;vector-effect:none;fill:#47474d;fill-opacity:1;fill-rule:nonzero;stroke:none;stroke-linecap:round;stroke-linejoin:round;stroke-miterlimit:4;stroke-dasharray:none;stroke-dashoffset:0;stroke-opacity:1;color-rendering:auto;image-rendering:auto;shape-rendering:auto;text-rendering:auto;enable-background:accumulate;stop-color:#47474d;stop-opacity:1;opacity:1" d="M 162.27344 113.38867 A 2.24896 2.24896 0 0 0 160.03711 115.23828 C 158.67706 122.78779 158.40438 130.50767 159.0918 138.11523 C 159.68749 144.70768 160.90751 151.40957 163.54883 157.70312 C 165.30706 161.89253 167.76147 166.06531 171.49805 169.19922 C 174.38684 171.62209 178.03165 173.08798 181.83203 173.26562 C 186.11798 173.46597 191.95834 173.55961 195.48242 169.375 C 198.47733 165.81875 200.71721 161.41365 201.20508 156.55469 C 201.69393 151.68598 200.31047 146.94009 198.08398 142.88477 C 195.21441 137.65813 191.13699 133.29669 186.68359 129.63672 C 183.13147 126.71745 179.27666 123.94096 174.91016 121.95508 C 173.64109 121.37791 172.17646 120.7001 170.41992 120.41406 C 170.00512 120.34651 169.39902 120.25387 168.58203 120.61133 C 167.76504 120.96878 167.04219 122.01031 166.91797 122.84961 C 166.37335 126.52942 166.43913 130.20711 166.76367 133.77148 C 167.2367 138.96661 168.19344 144.24635 170.19141 149.25195 C 171.43845 152.37624 173.11736 155.60496 175.84375 158.14844 C 177.82627 159.99796 180.47686 161.34927 183.44531 161.36328 C 184.5502 161.36849 185.86494 161.31989 187.23828 160.79688 C 189.40026 159.97352 190.82499 158.1847 191.5293 156.26758 C 192.44006 153.78851 192.23438 151.29097 191.83203 149.13281 C 191.44157 147.03842 190.51462 144.73866 188.47656 143.16211 C 186.73794 141.81719 184.39702 141.40873 182.26953 142.28125 C 180.20616 143.12747 178.98913 144.99676 178.65039 146.96094 C 178.39682 148.43125 178.61411 149.82359 178.99609 151.03906 A 2.24896 2.24896 0 0 0 181.81445 152.51172 A 2.24896 2.24896 0 0 0 183.28711 149.69141 C 183.05925 148.96634 182.98732 148.27573 183.08203 147.72656 C 183.18487 147.13027 183.6036 146.59632 183.97656 146.44336 C 184.47885 146.23736 185.24695 146.35121 185.72461 146.7207 C 186.55611 147.36391 187.1524 148.57443 187.41016 149.95703 C 187.74173 151.73558 187.79 153.4011 187.30664 154.7168 C 186.97856 155.60983 186.31652 156.3356 185.63867 156.59375 C 185.12008 156.79125 184.36667 156.87143 183.4668 156.86719 C 181.89507 156.85977 180.21637 156.07613 178.91211 154.85938 C 176.9142 152.9955 175.4909 150.39438 174.36914 147.58398 C 172.59255 143.133 171.69219 138.28411 171.24414 133.36328 C 170.99918 130.67296 171.00343 128.01206 171.23047 125.40039 C 171.82936 125.61642 172.37087 125.74138 173.04688 126.04883 C 176.87936 127.79184 180.42973 130.32 183.82617 133.11133 C 187.96347 136.51153 191.62986 140.47572 194.14062 145.04883 C 196.02936 148.48896 197.10265 152.37927 196.72852 156.10547 C 196.35156 159.85979 194.56491 163.47961 192.04102 166.47656 C 190.28802 168.55813 186.04764 168.96063 182.04297 168.77344 C 179.27164 168.64389 176.52682 167.5472 174.38867 165.75391 C 171.42529 163.26848 169.28474 159.74811 167.69531 155.96094 C 165.30478 150.26493 164.14277 144.02465 163.57227 137.71094 C 162.91901 130.48146 163.17916 123.16103 164.46289 116.03516 A 2.24896 2.24896 0 0 0 162.64844 113.42383 A 2.24896 2.24896 0 0 0 162.27344 113.38867 z "/></g><text x="0" y="253.12501" fill="#47474d" font-size="5px" font-weight="bold" font-family="'Helvetica Neue', Helvetica, Arial-Unicode, Arial, Sans-serif">Created by რაზმიკ ბადალიანი</text><text x="0" y="258.12501" fill="#47474d" font-size="5px" font-weight="bold" font-family="'Helvetica Neue', Helvetica, Arial-Unicode, Arial, Sans-serif">from the Noun Project</text></svg>
